<svg width="512" height="512" viewBox="0 0 512 512" fill="none" xmlns="http://www.w3.org/2000/svg">
<circle cx="256" cy="256" r="256" fill="#FFCA13"/>
<path fill-rule="evenodd" clip-rule="evenodd" d="M335.347 349.83C313.939 367.952 286.245 378.88 255.999 378.88C188.134 378.88 133.119 323.865 133.119 256C133.119 188.135 188.134 133.12 255.999 133.12C323.864 133.12 378.879 188.135 378.879 256C378.879 286.246 367.951 313.94 349.829 335.348L378.729 364.248L364.247 378.729L335.347 349.83ZM320.805 335.288C303.153 349.733 280.588 358.4 255.999 358.4C199.445 358.4 153.599 312.554 153.599 256C153.599 199.446 199.445 153.6 255.999 153.6C312.553 153.6 358.399 199.446 358.399 256C358.399 280.589 349.732 303.154 335.287 320.806L306.321 291.84L291.839 306.322L320.805 335.288Z" fill="black"/>
</svg>
