<svg width="40" height="40" viewBox="0 0 40 40" fill="none" xmlns="http://www.w3.org/2000/svg">
<path fill-rule="evenodd" clip-rule="evenodd" d="M32.9147 35.2718C29.4302 38.2214 24.9228 40 20 40C8.95431 40 0 31.0457 0 20C0 8.95431 8.95431 0 20 0C31.0457 0 40 8.95431 40 20C40 24.9228 38.2214 29.4303 35.2718 32.9147L39.9755 37.6185L37.6185 39.9755L32.9147 35.2718ZM30.5479 32.9049C27.6748 35.2561 24.0021 36.6667 20 36.6667C10.7952 36.6667 3.33333 29.2047 3.33333 20C3.33333 10.7953 10.7952 3.33333 20 3.33333C29.2048 3.33333 36.6667 10.7953 36.6667 20C36.6667 24.0021 35.256 27.6748 32.9049 30.5479L28.1904 25.8333L25.8333 28.1904L30.5479 32.9049Z" fill="black"/>
</svg>
